Coordinates
version=1
nRows=24
nColumns=22
inDegrees=yes

Units are S.I. units (second, meters, Newtons, ...)
If the header above contains a line with 'inDegrees', this indicates whether rotational values are in degrees (yes) or radians (no).

endheader
time	pelvis_tilt	pelvis_list	pelvis_rotation	pelvis_tx	pelvis_ty	pelvis_tz	hip_flexion_r	hip_adduction_r	hip_rotation_r	knee_angle_r	ankle_angle_r	subtalar_angle_r	hip_flexion_l	hip_adduction_l	hip_rotation_l	knee_angle_l	ankle_angle_l	subtalar_angle_l	lumbar_extension	lumbar_bending	lumbar_rotation
      1.31000000	      4.14342087	     -3.95586824	      6.78426505	     -1.33668395	      0.94828521	     -0.67649338	     -5.33984981	      4.71661204	    -13.23673140	    -10.19933592	     12.27698873	     -0.61751451	      0.95314476	     -4.61273964	     -9.50388904	    -21.54774408	     24.60685256	    -12.11775978	    -11.82659712	      5.02939291	     -9.16371169
      1.32000000	      4.17327010	     -3.90861130	      6.80470491	     -1.33533876	      0.94800815	     -0.67739347	     -5.21022067	      4.57601810	    -13.24092600	    -10.72152242	     12.59446075	     -0.58906434	      0.87317022	     -4.49238966	     -9.34430979	    -21.65449648	     24.78801417	    -12.26319281	    -11.90123847	      4.96686072	     -9.19656489
      1.33000000	      4.18956024	     -3.83845877	      6.80908397	     -1.33393820	      0.94768474	     -0.67832319	     -5.02028959	      4.39567888	    -13.23670598	    -11.34490420	     12.93995413	     -0.55825971	      0.79230979	     -4.33448331	     -9.16349798	    -21.75014065	     24.94540456	    -12.43513444	    -11.96318508	      4.87653969	     -9.21774521
      1.34000000	      4.18132580	     -3.74445324	      6.80911858	     -1.33253002	      0.94728811	     -0.67929085	     -4.75402405	      4.17489543	    -13.21443006	    -12.06973864	     13.32414944	     -0.52484309	      0.74244282	     -4.14000990	     -8.95053161	    -21.86354949	     25.07106756	    -12.69898633	    -12.00998882	      4.75666359	     -9.22849379
      1.35000000	      4.17687587	     -3.62533012	      6.77450495	     -1.33105183	      0.94685634	     -0.68023854	     -4.43661168	      3.91549008	    -13.14025971	    -12.91171197	     13.72480447	     -0.50131148	      0.66176780	     -3.91813297	     -8.78694555	    -21.95182209	     25.22883664	    -12.89385105	    -12.06600049	      4.60629922	     -9.24553905
      1.36000000	      4.16417969	     -3.47418787	      6.71318877	     -1.32953604	      0.94636312	     -0.68117214	     -4.04725374	      3.60903819	    -13.01974885	    -13.88285482	     14.15093968	     -0.48772034	      0.57813706	     -3.65829139	     -8.64369512	    -22.03781587	     25.38181184	    -13.06572188	    -12.12327546	      4.41490881	     -9.25913697
      1.37000000	      4.13720453	     -3.29411791	      6.62828811	     -1.32801184	      0.94579858	     -0.68209781	     -3.56637304	      3.25806125	    -12.84313933	    -15.00329225	     14.58538761	     -0.48841425	      0.50267506	     -3.36304099	     -8.51289800	    -22.12282576	     25.53040838	    -13.24594306	    -12.18019297	      4.19034111	     -9.27451653
      1.38000000	      4.10396662	     -3.08634730	      6.51660863	     -1.32647282	      0.94517225	     -0.68298580	     -2.99962255	      2.86947953	    -12.60177179	    -16.27707188	     15.00264177	     -0.50443796	      0.42817655	     -3.03800971	     -8.40541533	    -22.21243128	     25.68000071	    -13.41640458	    -12.24557359	      3.92898140	     -9.28785271
      1.39000000	      4.02718853	     -2.87056859	      6.39545921	     -1.32497371	      0.94442054	     -0.68387075	     -2.28660923	      2.45780368	    -12.31764135	    -17.73362976	     15.35644669	     -0.55845150	      0.41093597	     -2.69795947	     -8.29202401	    -22.31667245	     25.86924321	    -13.66802953	    -12.27883836	      3.65936025	     -9.31293846
      1.40000000	      4.00933822	     -2.60872535	      6.22992505	     -1.32346626	      0.94373183	     -0.68467713	     -1.56217494	      2.00508847	    -11.91193986	    -19.33673054	     15.68753174	     -0.58608667	      0.30700073	     -2.32520936	     -8.27906537	    -22.39662860	     25.99339101	    -13.76449822	    -12.40868423	      3.33914001	     -9.33581138
      1.41000000	      3.91807489	     -2.37187296	      6.06708626	     -1.32202705	      0.94288275	     -0.68545839	     -0.64388940	      1.56676516	    -11.48806213	    -21.13980877	     15.88030334	     -0.65028560	      0.31652035	     -1.97780283	     -8.26354067	    -22.52387995	     26.19057456	    -13.96119706	    -12.46916950	      3.04717979	     -9.39511939
      1.42000000	      3.86707778	     -2.12499439	      5.87253871	     -1.32059920	      0.94210481	     -0.68617015	      0.31628203	      1.13004886	    -10.96657975	    -23.09357755	     15.96419451	     -0.68687406	      0.26395709	     -1.63233647	     -8.32329309	    -22.61948753	     26.34482173	    -14.07652480	    -12.60133765	      2.75033067	     -9.45481721
      1.43000000	      3.85604357	     -1.88058759	      5.63563195	     -1.31916907	      0.94142934	     -0.68678445	      1.31985092	      0.71451248	    -10.34314630	    -25.19072312	     15.89189412	     -0.70599457	      0.13938722	     -1.29649800	     -8.43345666	    -22.66369201	     26.44024878	    -14.12395903	    -12.80148702	      2.46096217	     -9.49854320
      1.44000000	      3.77758832	     -1.68891301	      5.40680022	     -1.31779891	      0.94066013	     -0.68736044	      2.50123449	      0.36039632	     -9.70815935	    -27.44918082	     15.63885100	     -0.71211946	      0.13410768	     -1.03172318	     -8.61010117	    -22.77595941	     26.61332186	    -14.21647620	    -12.93735057	      2.24043850	     -9.61447200
      1.45000000	      3.76215776	     -1.51122589	      5.12477653	     -1.31639101	      0.94009203	     -0.68782193	      3.68384761	      0.06091459	     -8.96303757	    -29.79814937	     15.18078942	     -0.73330273	      0.00673988	     -0.78021243	     -8.80486237	    -22.79110961	     26.68671180	    -14.24826115	    -13.16596109	      2.04322878	     -9.67522128
      1.46000000	      3.69163702	     -1.39018635	      4.84870374	     -1.31496765	      0.93948155	     -0.68822224	      5.00542724	     -0.15659674	     -8.22767186	    -32.24622163	     14.57152806	     -0.76108811	     -0.03281658	     -0.60633024	     -9.07058226	    -22.85139029	     26.83133640	    -14.28230107	    -13.33084292	      1.91799769	     -9.82052680
      1.47000000	      3.67803281	     -1.30035333	      4.53347887	     -1.31345503	      0.93908962	     -0.68852027	      6.30737094	     -0.28570809	     -7.42060777	    -34.71177183	     13.77037509	     -0.86204393	     -0.18938819	     -0.45977043	     -9.32241342	    -22.81376560	     26.86977052	    -14.28910519	    -13.57127306	      1.83903152	     -9.91393587
      1.48000000	      3.60178046	     -1.25814895	      4.23270963	     -1.31184059	      0.93865674	     -0.68876753	      7.71970047	     -0.33095342	     -6.65753350	    -37.19459101	     12.92228841	     -1.04200250	     -0.26661098	     -0.37925823	     -9.64265516	    -22.80323272	     26.97851186	    -14.28738460	    -13.72643759	      1.82483733	    -10.10778358
      1.49000000	      3.56090375	     -1.25388461	      3.92069286	     -1.31006862	      0.93839289	     -0.68892957	      9.09956513	     -0.28157369	     -5.90991035	    -39.61158277	     11.99889399	     -1.32634441	     -0.42817272	     -0.33651117	     -9.94101286	    -22.71859869	     27.02233812	    -14.27500742	    -13.91873077	      1.86137931	    -10.28170046
      1.50000000	      3.55295942	     -1.28587683	      3.61384596	     -1.30810240	      0.93828843	     -0.68903026	     10.42827241	     -0.14719603	     -5.22851449	    -41.91273680	     11.04486115	     -1.66021835	     -0.67278312	     -0.33192245	    -10.22785605	    -22.56131710	     27.02025961	    -14.25375141	    -14.13717124	      1.95017767	    -10.45400001
      1.51000000	      3.49510837	     -1.35226373	      3.34349956	     -1.30592569	      0.93813836	     -0.68909990	     11.79130586	      0.03807871	     -4.70490758	    -44.08625537	     10.22911233	     -2.11574117	     -0.86622116	     -0.38025892	    -10.55628307	    -22.41949452	     27.09323554	    -14.17508773	    -14.26891543	      2.08755592	    -10.72240410
      1.52000000	      3.49204290	     -1.45590662	      3.09185039	     -1.30353375	      0.93818803	     -0.68912629	     13.03825784	      0.29600841	     -4.28917556	    -46.03220244	      9.44174940	     -2.47209223	     -1.17835274	     -0.46463324	    -10.84047697	    -22.18127714	     27.08337748	    -14.08346584	    -14.45145381	      2.27785038	    -10.97575311
      1.53000000	      3.44741139	     -1.58671978	      2.90939802	     -1.30095037	      0.93819215	     -0.68918385	     14.28072863	      0.55446231	     -4.12242370	    -47.76093047	      8.84184342	     -2.84363246	     -1.44321177	     -0.59882529	    -11.15380605	    -21.95939573	     27.15199940	    -13.85980593	    -14.56544920	      2.51297513	    -11.30007390
      1.54000000	      3.42048665	     -1.75760460	      2.76587186	     -1.29813004	      0.93831705	     -0.68924887	     15.42171089	      0.84756265	     -4.12328837	    -49.18659407	      8.32566657	     -3.06610860	     -1.77817072	     -0.77345849	    -11.42392272	    -21.65539431	     27.17284302	    -13.60589269	    -14.67572519	      2.80661562	    -11.62600167
